<?xml version="1.0" encoding="utf-8"?>
<!-- Generator: Adobe Illustrator 21.0.1, SVG Export Plug-In . SVG Version: 6.00 Build 0)  -->
<svg version="1.1" id="Layer_1" xmlns="http://www.w3.org/2000/svg" xmlns:xlink="http://www.w3.org/1999/xlink" x="0px" y="0px"
	 viewBox="0 0 536 800" style="enable-background:new 0 0 536 800;" xml:space="preserve">
<style type="text/css">
	.st0{fill:#FFFFFF;}
</style>
<path class="st0" d="M259.6,568.1c1.5-5.3,3.4-10.1,5.2-14.8c1.9-4.6,3.7-9.1,5.6-13.4c3.7-15.1,8.4-29.9,14.7-43.3
	c0.8-1.7,1.6-3.3,2.5-4.9c0.8-1.6,1.8-3.1,2.7-4.6c0.9-1.5,2-3,3.1-4.5l3.3-4.5c2.1-3.1,4.7-6,7.1-8.9l3.6-4.4l3.9-4.4
	c10.3-11.7,21.5-23,32.4-35.7c5.4-6.4,10.9-13,15.8-20.4c2.7-3.6,4.8-7.3,7.1-11.1c2.3-3.7,4.3-7.7,6.4-11.5
	c8.1-15.8,15.1-33.6,16.7-53.8c0.8-10,0-20.6-2.6-30.8c-1.2-5.1-3-10.1-5-14.9c-0.5-1.2-1.1-2.4-1.6-3.6l-0.8-1.8
	c-0.2-0.6-0.6-1.2-1-1.9c-1.5-2.6-2.9-5.4-4.7-7.6c-7-9.6-15.9-16.8-25.5-22.5c-9.6-5.6-20.1-9.8-31.4-12.3
	c-11.3-2.4-23.6-3.5-37.4,0.4c-6.8,2.2-12.3,5.2-17.4,8.4c-5.1,3.3-9.9,6.8-14.4,10.7c-6.9,5.9-14.1,13.1-21.1,22
	c-6.9,8.9-13.8,19.6-18.6,33c-2.3,6.7-4.1,14.2-4.5,22.4c-0.2,2,0,4.1,0,6.2c0.1,2.1,0.3,4.2,0.6,6.3c0.7,4.5,1.7,7.8,2.6,11.6
	c2.1,7.4,4.8,15.2,9.3,23.1c1.1,2,2.3,3.9,3.8,5.9c1.3,2,3,3.9,4.7,5.7c3.6,3.7,7.9,7.2,13.1,9.8c5.1,2.6,11.1,4.1,16.9,4.3l1.1,0
	c0.5,0,0.9,0,1.4,0c1-0.1,2-0.1,2.9-0.2c1.9-0.3,3.5-0.7,5-1.1c2.9-0.8,5.4-1.9,7.9-3c9.6-4.7,17.8-11.9,23.9-20.8
	c6.1-8.9,9.9-19.2,11.4-29.5c0.3-2.6,0.6-5.1,0.8-7.7c0.3-2.6,0.1-5.1,0.2-7.7c0-1.3,0-2.5,0-3.9l-0.3-4.1c-0.3-2.7-0.6-5.4-1.2-8
	c-1-5.3-2.5-10.4-4.4-15.4c-1.9-5-4.1-9.8-6.7-14.4c-2.6-4.6-5.5-9.1-8.7-13.3c-3.2-4.3-6.6-8.4-10.4-12.2
	c-7.5-7.7-16.1-14.6-26-20.3c-9.8-5.6-21-9.9-33.3-11.4c-6.1-0.7-12.5-0.7-18.9,0.2l-4.8,0.9l-4.4,1.2c-2.9,0.8-5.9,1.6-8.7,2.9
	c-11.4,4.5-21.8,11.3-30.6,19.8c-17.6,17.1-28.4,40.3-31.7,64.6c-1.6,12.2-1.5,24.7,0.9,36.9c2.2,11.8,5.4,23.1,9.8,34.4
	c4.4,11.2,10.2,22,17.1,32.2l5.4,7.5l5.9,7.1c1.9,2.4,4.1,4.6,6.3,6.8c2.2,2.1,4.2,4.5,6.6,6.4c18.3,16.5,39.7,29.1,62.2,37.7
	l8.5,3.1c2.8,1,5.6,2.1,8.5,2.9l8.6,2.5c2.9,0.8,5.7,1.7,8.9,2.4c12.4,3,25.1,4.2,37.5,3.9c12.5-0.2,24.7-1.8,36.8-4.3
	c12-2.6,23.6-6.2,34.9-10.5c11.3-4.3,22.2-9.7,32.7-15.5c10.5-5.9,20.4-12.6,30.1-19.7c38-28.8,68.2-68,83.6-112.3
	c7.5-22.2,11.4-45.4,11.3-68.1c0-11.1-0.7-22.1-1.8-33c-1.3-10.8-2.8-21.5-5.2-32c-8.9-41.9-26.5-80.4-50.6-111.4
	c-12-15.5-25.6-29.2-40-40.6c-14.4-11.5-29.7-20.7-45-27.9c-15.3-7.3-30.6-12.6-45.2-16.6C339.2,9,332.1,7,325,5.9
	c-3.5-0.6-7-1.3-10.4-1.8c-3.4-0.4-6.8-0.9-10.1-1.3c-26.6-3.1-49.8-2.7-68.8-1.2c-9.5,0.6-18,2.1-25.3,3
	c-7.3,1.4-13.5,2.5-18.5,3.8c-5,1.3-8.8,2.3-11.3,3c-2.6,0.6-3.8,1.1-3.8,1.1S175,13,171.9,14c-3.1,1.1-7.8,2.4-13.8,4.9
	c-12,4.6-29.5,12.3-49.4,26.6c-19.8,14.1-42,34.9-60.4,63.7C29.7,137.9,14.8,174.1,7,215.4c-2,10.3-3.4,21-4.5,32
	c-1,11-1.5,22.2-1.2,33.8c0.7,23.3,4.5,47,11.1,70.6c13.2,47.2,37.7,94.5,73.3,135.7c4.4,5.2,9.2,10.1,13.8,15.2
	c4.9,4.8,9.7,9.8,14.9,14.4c5,4.8,10.5,9.2,15.8,13.7c5.6,4.3,11,8.8,16.8,12.8c22.9,16.7,48.3,30.6,75.1,42.2
	c13.4,5.7,27.3,10.8,42.1,14.6c7.3,2,14.9,3.6,22.8,4.6c7.8,1.1,15.9,1.6,24.4,1c8.4-0.6,17.3-2.2,26-6.1
	c8.7-3.8,17.2-10.5,22.7-19.7c2.7-4.6,4.8-9.6,5.7-15.2c0.2-1.4,0.4-2.8,0.5-4.3c0.1-1.5,0.1-3,0-4.8c-0.2-3.7-1.2-7.3-2.9-10.5
	c-1.6-3.3-3.9-6.2-6.8-8.7c-2.7-2.4-5.2-3.8-7.7-5.1c-5-2.4-9.7-3.7-14.2-4.6c-11-2-21.1-1.8-31.1-1.1c-10,0.8-19.7,2.5-29.4,4.7
	c-9.5,2.2-19.5,5.2-28.7,9.1c-9.3,3.9-18.3,8.5-26.9,14c-8.6,5.6-16.9,12-24.2,20.9c-3.6,4.4-7,9.6-9.4,15.9
	c-1.1,3.2-2.1,6.6-2.4,10.2c-0.2,1.8-0.3,3.8-0.1,5.4c0.1,1.7,0.3,3.4,0.5,5.1c1.2,6.7,3.9,13.1,7.4,18.1c0.8,1.4,1.8,2.5,2.7,3.6
	c0.9,1.1,1.9,2.4,2.9,3.4c2,2,4,4.1,6.1,5.8c8.4,7,17.2,11.8,26,15.7c8.8,3.8,17.7,6.7,26.5,8.8c2.2,0.6,4.4,1,6.6,1.5
	c2.2,0.5,4.2,0.8,6.2,1.3c4.1,0.8,8.2,1.6,12.3,2.2c8.2,1.4,16.4,2.5,24.6,3.1c8.2,0.6,16.4,0.9,25,0c4.3-0.5,8.6-1.2,13.2-2.6
	c4.5-1.4,9.3-3.5,13.8-6.9c4.5-3.4,8.6-8.7,10.6-14.2c2.1-5.5,2.4-11,2.1-15.4l-0.1-1.7c-0.1-0.6-0.2-1.4-0.3-2.1
	c-0.3-1.5-0.4-2.9-0.8-4.4c-0.9-2.9-2-5.7-3.8-8c-3.5-4.7-8.5-7.9-13.9-9.8c-2.5-0.9-4.2-1.3-6.2-1.7c-1.9-0.4-3.6-0.6-5.4-0.8
	c-3.4-0.3-6.5-0.4-9.5-0.3c-12.1,0.3-22.8,2.4-33.1,4.8c-10.2,2.5-19.8,5.7-29,9.3c-9.2,3.6-17.9,7.7-26.2,12.4
	c-8.3,4.8-16.1,10-23.3,16.8c-3.6,3.4-7,7.2-10,11.9c-2.9,4.6-5.6,10.2-6.4,16.8c-1,6.5,0.4,13.6,3.1,19.1c2.6,5.1,5.7,9.3,8.9,12.6
	c6.4,6.7,13.1,11.3,19.6,15.2c6.5,3.8,13,7,19.3,9.6c12.6,5.2,24.7,8.7,36.2,11c11.5,2.2,22.5,3.4,33.1,3.1c2.7-0.1,5.3-0.2,7.9-0.6
	c1.3-0.2,2.6-0.3,3.9-0.5c1.3-0.3,2.6-0.5,3.9-0.8c1.3-0.2,2.6-0.6,3.9-1c1.3-0.4,2.6-0.7,3.9-1.2c2.6-1.1,5.2-2,7.7-3.6
	c2.5-1.3,5-3.3,7.2-5.2c1.1-1,2.2-2.3,3.2-3.5l1.5-1.8l1.2-2c0.8-1.4,1.6-2.7,2.2-4.1c0.5-1.4,1-2.8,1.4-4.2
	c0.2-0.7,0.4-1.4,0.6-2.1l0.3-2c0.2-1.3,0.3-2.6,0.5-3.9c0.1-2-0.1-3.8-0.1-5.7c0-1.6-0.4-4.4-1.2-6.7c-1.4-4.8-4.1-9-7.3-12.2
	c-6.4-6.4-13.6-9.2-20.3-10.6c-13.5-2.7-26.3-0.1-37.4,5.4c-5.5,2.8-10.5,6.4-14.8,10.5c-2.1,2.1-4.2,4.3-6,6.6l-1.4,1.8l-1.4,2.2
	c-0.9,1.5-1.9,2.9-2.5,4.6c-3.1,6.4-4.2,13.9-3.6,20.5c0.7,6.7,2.8,12.4,5.3,17.5c5.1,10.1,11.9,17.6,18.7,24.3
	c1.7,1.6,3.5,3.2,5.3,4.7c1.8,1.4,3.7,3.1,5.3,4.3c3.3,2.6,6.6,5.1,9.4,7.5l1.9,1.6l0.6,0.6l0.1,0.1c0.1,0-0.1,0.1,0.1-0.1l1.3-1.1
	c0.5-0.4,0.9-0.7,1.2-1c0.6-0.6,1.3-1.1,2-1.6c2.5-1.9,4.7-2.8,5.3-2.8c0.7,0-0.2,0.2-1.4-2c-0.2-0.4-0.7-1.3-1.1-2l-1.4-3.2
	l-0.8-2.1c-0.2-0.6-0.6-1.7-0.5-1.4l-0.1,0c-0.2,0.1-0.8,0.3-0.7,0.3c-0.2,0.1-0.3,0.2-0.5,0.3c-0.2,0-0.4-0.1-0.5-0.2l-0.2-0.2
	c-0.1-0.1,0,0-0.2-0.1l-0.8-0.8c-1.1-1.1-2.2-2.4-3.3-3.7c-2.2-2.6-4.2-5.5-6.2-8.4c-7.6-11.4-13.7-24-18.9-36.7
	c-5.2-12.8-9.4-25.8-12.9-39c-7-26.3-11.2-52.9-13.5-79.8C265.6,592.7,262.8,581.2,259.6,568.1c-3.4,13.2-6,25-7.5,37
	c0.5,27.8,3.1,55.8,9.1,84c3,14.1,6.8,28.2,11.8,42.3c5,14.1,11.2,28.2,19.6,42c2.2,3.6,4.6,7.2,7.4,10.7c1.4,1.8,2.8,3.6,4.5,5.4
	l1.3,1.4c0.5,0.6,1.3,1.3,2,1.9c1.4,1.3,2.8,2.5,4.4,3.6c3.1,2.1,6.4,3.7,10.1,4.1c1.9,0.2,3.4,0,5.3-0.4c1.8-0.4,3.6-1.4,5.5-2
	l2.2-0.7c0.8-0.3,1.8-0.6,3.8-1.7c0.6-0.4,1-0.6,1.9-1.3c0.4-0.3,0.8-0.7,1.1-1l0.3-0.3l0.4-0.4c0.2-0.3,0.5-0.6,0.7-0.9
	c0.5-0.6,0.8-1.2,1.2-2c0.4-0.8,0.7-1.7,1-2.6c0.5-1.8,0.6-3.3,0.5-5c-0.1-1.3-0.4-2.4-0.7-3.5c-0.3-0.7-0.5-1.4-0.9-2.1
	c-0.3-0.7-0.5-0.9-0.8-1.4c-0.3-0.4-0.5-0.8-0.7-1.1c-1.7-2.2-2.7-3.1-3.7-4.1c-1-0.9-1.9-1.7-2.7-2.5c-3.4-3-6.7-5.6-9.9-8.3
	c-1.7-1.4-2.9-2.5-4.4-3.8c-1.4-1.3-2.8-2.5-4.1-3.9c-5.3-5.2-10-11.1-12.7-16.8c-1.3-2.8-2.2-5.6-2.4-7.9c-0.1-2.3,0.2-4,1.1-5.9
	c0.1-0.5,0.5-0.9,0.8-1.4l0.4-0.7l0.8-1c1-1.3,2.2-2.5,3.4-3.6c2.4-2.3,5.1-4.1,8-5.6c5.8-2.9,13-4,18.7-2.8c2.8,0.6,5,1.9,5.7,2.6
	c0.3,0.4,0.3,0.5,0.4,0.5c0-0.5,0.1,1.5,0.1,2.6c-0.1,0.3-0.1,0.6-0.1,0.9l0,0.5c0,0.1-0.1,0.2-0.2,0.3c-0.1,0.2-0.2,0.4-0.2,0.7
	c-0.1,0.2-0.3,0.3-0.4,0.5c0,0.1-0.1,0.2-0.1,0.3c-0.1,0.1-0.2,0.2-0.3,0.3c-0.2,0.2-0.3,0.4-0.5,0.6c-0.6,0.4-1,0.9-2,1.4
	c-3.3,2.1-10.1,3.5-17.8,3.8c-15.7,0.4-36.1-3.2-57.3-11.9c-5.3-2.2-10.6-4.8-15.6-7.7c-5-3-9.9-6.5-13.4-10.2
	c-1.9-1.8-3-3.7-3.9-5.2c-0.5-1.2-0.7-1.9-0.5-3c0.1-2.2,2.9-7,7.7-11.4c4.7-4.5,10.9-8.8,17.8-12.7c6.9-3.9,14.4-7.5,22.5-10.6
	c8-3.2,16.6-5.9,25.4-8.1c8.8-2.1,18-3.8,26.7-4c2.1,0,4.1,0,6,0.2c0.9,0.1,1.8,0.2,2.7,0.4c0.7,0.1,1.7,0.4,1.9,0.5c0,0,0,0-0.1,0
	c0,0,0,0,0,0c0,0,0,0.1,0,0.1c0,0.1,0,0,0,0.2l0,0.6c0.2,1.7-0.1,2.8-0.3,3.3c-0.2,0.6-0.4,0.8-1.2,1.5c-0.8,0.6-2.4,1.5-4.6,2.1
	c-2.2,0.7-4.9,1.1-7.8,1.5c-5.8,0.6-12.6,0.5-19.6,0c-7.1-0.6-14.5-1.6-22.1-2.8c-3.8-0.6-7.7-1.4-11.6-2.1c-1.9-0.4-4-0.8-5.9-1.2
	c-1.8-0.4-3.7-0.8-5.6-1.3c-7.4-1.8-14.8-4.2-21.9-7.3c-7-3-13.6-6.8-18.9-11.2c-5.4-4.4-8.5-9.3-9.2-13.5c0-0.5-0.1-1.1-0.2-1.6
	c-0.1-0.6,0-0.9,0-1.3c0-0.9,0.4-1.9,0.7-3c0.9-2.3,2.4-4.9,4.6-7.6c4.4-5.3,10.7-10.5,17.6-14.9c6.9-4.5,14.5-8.4,22.3-11.6
	c7.8-3.3,15.7-5.7,24.2-7.7c8.4-2,16.8-3.4,25.1-4.1c8.2-0.7,16.5-0.6,23.3,0.6c2.7,0.5,5.2,1.3,6.7,2.1c0.7,0.4,1.4,0.8,1.5,0.9
	c-0.1-0.1,0-0.1-0.1-0.1c0,0,0,0,0,0c0,0,0,0.3,0,0.7c0,0.3-0.1,0.7-0.1,1.1c-0.2,1.6-1,3.5-2,5.1c-2,3.3-5.4,6.3-9.9,8.3
	c-4.5,2.1-10.1,3.2-16,3.6c-5.9,0.4-12.3,0-18.6-0.8c-6.4-0.8-12.8-2.2-19.3-3.9c-12.9-3.4-25.6-8-38.1-13.3
	c-24.9-10.7-48.3-23.6-69.4-39c-5.4-3.7-10.4-7.9-15.5-11.8c-4.9-4.2-9.9-8.2-14.5-12.6c-4.8-4.2-9.2-8.8-13.7-13.2
	c-4.3-4.6-8.7-9.1-12.7-13.9C74.9,430.7,52.3,387.2,40.3,344c-6.1-21.6-9.5-43.1-10.1-63.6c-0.3-10.2,0.1-20.5,1.1-30.5
	c0.9-10,2.2-19.7,4.1-29.2c7.2-37.8,20.7-70.5,37.2-95.9c16.4-25.6,35.7-43.6,52.9-55.9c17.3-12.4,32.7-19.2,43.2-23.2
	c5.2-2.2,9.4-3.4,12.2-4.3c2.8-0.9,4.2-1.4,4.2-1.4s1.1-0.4,3.4-1c2.3-0.6,5.7-1.5,10.1-2.6c4.4-1.1,10-2.1,16.6-3.4
	c6.7-0.8,14.2-2.2,22.9-2.7c17.3-1.4,38.8-1.7,63.1,1.1c3,0.4,6.1,0.8,9.2,1.2c3.1,0.5,6.2,1.1,9.4,1.7c6.4,1,12.8,2.8,19.5,4.3
	c13.2,3.6,26.7,8.4,40.2,14.8c27,12.7,53.5,32.7,74.6,60.2c21.3,27.3,37.1,61.8,45.2,99.8c2.1,9.5,3.5,19.2,4.7,29
	c1,9.9,1.6,19.9,1.6,29.9c0.1,19.7-3.3,39.5-9.7,58.6c-13.3,38.2-39.8,73-73.8,98.7c-8.6,6.3-17.5,12.3-26.8,17.5
	c-9.4,5.1-19,9.9-29,13.7c-10,3.8-20.2,7-30.5,9.2c-10.4,2.1-20.8,3.4-31.2,3.6c-10.4,0.3-20.6-0.8-30.4-3.1c-2.4-0.4-5-1.3-7.6-2.1
	l-7.8-2.3c-2.6-0.7-5.1-1.7-7.6-2.6l-7.5-2.8c-20-7.6-38.1-18.5-53.3-32.1c-2-1.6-3.6-3.6-5.4-5.3c-1.8-1.8-3.6-3.5-5.2-5.5
	l-4.9-5.8l-4.4-6.1c-5.6-8.3-10.4-17.1-14.1-26.5c-3.6-9.3-6.4-19.2-8.2-28.9c-1.8-9.3-1.9-18.7-0.7-27.9
	c2.4-18.3,10.7-35.6,23.1-47.7c6.2-6,13.4-10.7,21.1-13.7c1.9-0.9,3.9-1.4,5.8-2l2.9-0.9l2.7-0.5c3.6-0.5,7.4-0.5,11.2-0.1
	c7.6,0.9,15.3,3.7,22.5,7.8c7.1,4.1,13.8,9.3,19.5,15.3c11.5,11.9,19.8,26.5,22.6,40.7c0.4,1.8,0.6,3.5,0.8,5.3l0.2,2.6
	c0.1,0.9,0,1.8,0,2.7c-0.1,1.8,0.1,3.7-0.1,5.5c-0.2,1.8-0.4,3.5-0.5,5.2c-1,6.8-3.3,12.8-6.7,17.7c-3.3,4.9-7.8,8.8-12.6,11.1
	c-1.2,0.5-2.3,1-3.2,1.3c-0.5,0.1-0.7,0.2-0.8,0.2c0,0,0,0,0,0c0,0,0,0,0,0l-0.4,0c-2-0.1-3.7-0.5-5.4-1.4c-1.7-0.8-3.3-2.1-4.9-3.8
	c-0.8-0.9-1.6-1.7-2.3-2.8c-0.8-1-1.5-2.2-2.1-3.3c-2.7-4.7-4.8-10.4-6.4-16.2c-1.7-6.4-2.5-10.3-2.2-15.2c0.2-4.8,1.3-9.6,2.9-14.2
	c3.2-9.3,8.5-17.7,14.1-24.8c5.6-7.1,11.5-13.1,17.1-17.8c3.6-3.1,7.4-5.9,11.2-8.4c3.7-2.4,7.6-4.4,10.6-5.3
	c3.1-0.9,6.8-1.3,10.7-1.4c4,0.1,8.1,0.5,12.2,1.4c8.2,1.7,16.2,4.8,23.3,8.8c7,4,13.1,9.1,17.2,14.5c1.2,1.3,1.8,2.8,2.7,4.1
	c0.2,0.3,0.4,0.7,0.7,1.2l0.7,1.4c0.4,0.9,0.9,1.8,1.3,2.7c1.5,3.6,3,7.3,3.9,10.9c2,7.3,2.8,14.8,2.4,22.3
	c-0.7,15.1-5.8,30.2-12.5,44.4c-1.8,3.5-3.4,7.1-5.4,10.6c-1.9,3.4-3.8,7-5.9,10.1c-3.9,6.5-8.6,12.7-13.4,18.9
	c-9.7,12.4-20.3,24.4-30.3,37.2l-3.8,4.8l-3.6,5c-2.4,3.3-4.9,6.5-7.1,10.1l-3.3,5.3c-1.1,1.7-2.2,3.5-3.2,5.5
	c-1,1.9-2.1,3.9-2.9,5.8c-0.9,1.9-1.8,3.9-2.5,5.8c-6.2,15.6-9.8,31.4-12.6,47.4c0,4.9,0.2,9.9,0.6,15.1
	C257.8,557.4,258.4,562.7,259.6,568.1z"/>
</svg>
